<mxfile modified="2019-11-13T10:56:13.563Z" host="www.draw.io" agent="Mozilla/5.0 (Windows NT 10.0; Win64; x64) AppleWebKit/537.36 (KHTML, like Gecko) Chrome/78.0.3904.97 Safari/537.36" etag="1gVRWCUKjunQ2TI0j04p" version="12.2.4" type="github" pages="3">
  <diagram id="x4kqATxfjNBDpYNRpO1s" name="Page-1">
    <mxGraphModel dx="1024" dy="1654" grid="1" gridSize="10" guides="1" tooltips="1" connect="1" arrows="1" fold="1" page="1" pageScale="1" pageWidth="827" pageHeight="1169" math="0" shadow="0">
      <root>
        <mxCell id="0"/>
        <mxCell id="1" parent="0"/>
        <mxCell id="EmchUFriqX5AjKunvJL4-1" value="" style="ellipse;html=1;shape=startState;fillColor=#000000;strokeColor=#000000;fontSize=14;fontStyle=0" parent="1" vertex="1">
          <mxGeometry x="350" y="-60" width="30" height="30" as="geometry"/>
        </mxCell>
        <mxCell id="EmchUFriqX5AjKunvJL4-2" value="" style="edgeStyle=orthogonalEdgeStyle;html=1;verticalAlign=bottom;endArrow=open;endSize=8;strokeColor=#000000;fontSize=14;fontStyle=0;entryX=0.5;entryY=0;entryDx=0;entryDy=0;" parent="1" source="EmchUFriqX5AjKunvJL4-1" edge="1" target="OtMbsbLsqLYc181qHSAm-3">
          <mxGeometry relative="1" as="geometry">
            <mxPoint x="365" y="-10" as="targetPoint"/>
          </mxGeometry>
        </mxCell>
        <mxCell id="OtMbsbLsqLYc181qHSAm-9" style="edgeStyle=orthogonalEdgeStyle;rounded=0;orthogonalLoop=1;jettySize=auto;html=1;entryX=0;entryY=0.5;entryDx=0;entryDy=0;" edge="1" parent="1" source="EmchUFriqX5AjKunvJL4-3" target="EmchUFriqX5AjKunvJL4-5">
          <mxGeometry relative="1" as="geometry">
            <Array as="points">
              <mxPoint x="230" y="230"/>
            </Array>
          </mxGeometry>
        </mxCell>
        <mxCell id="EmchUFriqX5AjKunvJL4-3" value="Register" style="rounded=1;whiteSpace=wrap;html=1;strokeColor=#000000;fontSize=14;fontStyle=0" parent="1" vertex="1">
          <mxGeometry x="170" y="120" width="120" height="60" as="geometry"/>
        </mxCell>
        <mxCell id="EmchUFriqX5AjKunvJL4-9" style="edgeStyle=orthogonalEdgeStyle;rounded=0;orthogonalLoop=1;jettySize=auto;html=1;exitX=0.5;exitY=1;exitDx=0;exitDy=0;endArrow=open;endFill=0;strokeColor=#000000;fontSize=14;fontStyle=0" parent="1" source="EmchUFriqX5AjKunvJL4-5" edge="1">
          <mxGeometry relative="1" as="geometry">
            <mxPoint x="365" y="280" as="targetPoint"/>
          </mxGeometry>
        </mxCell>
        <mxCell id="EmchUFriqX5AjKunvJL4-5" value="&lt;span&gt;Login&lt;/span&gt;" style="rounded=1;whiteSpace=wrap;html=1;strokeColor=#000000;fontSize=14;fontStyle=0" parent="1" vertex="1">
          <mxGeometry x="305" y="200" width="120" height="60" as="geometry"/>
        </mxCell>
        <mxCell id="EmchUFriqX5AjKunvJL4-8" value="invalid" style="text;html=1;resizable=0;points=[];autosize=1;align=left;verticalAlign=top;spacingTop=-4;fontSize=14;fontStyle=0" parent="1" vertex="1">
          <mxGeometry x="480" y="260" width="60" height="20" as="geometry"/>
        </mxCell>
        <mxCell id="EmchUFriqX5AjKunvJL4-12" style="edgeStyle=orthogonalEdgeStyle;rounded=0;orthogonalLoop=1;jettySize=auto;html=1;endArrow=open;endFill=0;strokeColor=#000000;fontSize=14;entryX=1;entryY=0.5;entryDx=0;entryDy=0;exitX=1;exitY=0.5;exitDx=0;exitDy=0;fontStyle=0" parent="1" source="EmchUFriqX5AjKunvJL4-11" target="EmchUFriqX5AjKunvJL4-5" edge="1">
          <mxGeometry relative="1" as="geometry">
            <mxPoint x="490" y="270" as="targetPoint"/>
            <Array as="points">
              <mxPoint x="480" y="320"/>
              <mxPoint x="480" y="230"/>
            </Array>
          </mxGeometry>
        </mxCell>
        <mxCell id="EmchUFriqX5AjKunvJL4-14" style="edgeStyle=orthogonalEdgeStyle;rounded=0;orthogonalLoop=1;jettySize=auto;html=1;endArrow=open;endFill=0;strokeColor=#000000;fontSize=14;fontStyle=0" parent="1" source="EmchUFriqX5AjKunvJL4-11" edge="1">
          <mxGeometry relative="1" as="geometry">
            <mxPoint x="365" y="390" as="targetPoint"/>
          </mxGeometry>
        </mxCell>
        <mxCell id="EmchUFriqX5AjKunvJL4-11" value="Check Validity" style="rhombus;whiteSpace=wrap;html=1;strokeColor=#000000;fontSize=14;fontStyle=0" parent="1" vertex="1">
          <mxGeometry x="325" y="280" width="80" height="80" as="geometry"/>
        </mxCell>
        <mxCell id="EmchUFriqX5AjKunvJL4-22" value="valid" style="text;html=1;resizable=0;points=[];autosize=1;align=left;verticalAlign=top;spacingTop=-4;fontSize=14;fontStyle=0" parent="1" vertex="1">
          <mxGeometry x="373" y="370" width="40" height="20" as="geometry"/>
        </mxCell>
        <mxCell id="EmchUFriqX5AjKunvJL4-25" value="No" style="text;html=1;resizable=0;points=[];autosize=1;align=left;verticalAlign=top;spacingTop=-4;fontSize=14;fontStyle=0" parent="1" vertex="1">
          <mxGeometry x="275" y="610" width="30" height="20" as="geometry"/>
        </mxCell>
        <mxCell id="EmchUFriqX5AjKunvJL4-26" value="Yes" style="text;html=1;resizable=0;points=[];autosize=1;align=left;verticalAlign=top;spacingTop=-4;fontSize=14;fontStyle=0" parent="1" vertex="1">
          <mxGeometry x="445" y="610" width="40" height="20" as="geometry"/>
        </mxCell>
        <mxCell id="EmchUFriqX5AjKunvJL4-53" style="edgeStyle=orthogonalEdgeStyle;rounded=0;orthogonalLoop=1;jettySize=auto;html=1;exitX=0.5;exitY=1;exitDx=0;exitDy=0;entryX=0.5;entryY=0;entryDx=0;entryDy=0;endArrow=open;endFill=0;strokeColor=#000000;fontSize=14;fontStyle=0" parent="1" source="EmchUFriqX5AjKunvJL4-27" target="EmchUFriqX5AjKunvJL4-32" edge="1">
          <mxGeometry relative="1" as="geometry"/>
        </mxCell>
        <mxCell id="EmchUFriqX5AjKunvJL4-27" value="Compare the captured image with image in database" style="rounded=1;whiteSpace=wrap;html=1;strokeColor=#000000;fontSize=14;fontStyle=0" parent="1" vertex="1">
          <mxGeometry x="310" y="490" width="120" height="70" as="geometry"/>
        </mxCell>
        <mxCell id="EmchUFriqX5AjKunvJL4-37" style="edgeStyle=orthogonalEdgeStyle;rounded=0;orthogonalLoop=1;jettySize=auto;html=1;endArrow=open;endFill=0;strokeColor=#000000;fontSize=14;entryX=0.5;entryY=0;entryDx=0;entryDy=0;fontStyle=0" parent="1" source="EmchUFriqX5AjKunvJL4-32" target="EmchUFriqX5AjKunvJL4-44" edge="1">
          <mxGeometry relative="1" as="geometry">
            <mxPoint x="200" y="690" as="targetPoint"/>
            <Array as="points">
              <mxPoint x="200" y="635"/>
            </Array>
          </mxGeometry>
        </mxCell>
        <mxCell id="EmchUFriqX5AjKunvJL4-38" style="edgeStyle=orthogonalEdgeStyle;rounded=0;orthogonalLoop=1;jettySize=auto;html=1;exitX=1;exitY=0.5;exitDx=0;exitDy=0;endArrow=open;endFill=0;strokeColor=#000000;fontSize=14;fontStyle=0" parent="1" source="EmchUFriqX5AjKunvJL4-32" edge="1">
          <mxGeometry relative="1" as="geometry">
            <mxPoint x="540" y="670" as="targetPoint"/>
            <Array as="points">
              <mxPoint x="540" y="635"/>
            </Array>
          </mxGeometry>
        </mxCell>
        <mxCell id="EmchUFriqX5AjKunvJL4-32" value="Are the &lt;br&gt;user&#39;s image are same" style="rhombus;whiteSpace=wrap;html=1;strokeColor=#000000;fontSize=14;fontStyle=0" parent="1" vertex="1">
          <mxGeometry x="320" y="580" width="100" height="110" as="geometry"/>
        </mxCell>
        <mxCell id="EmchUFriqX5AjKunvJL4-49" style="edgeStyle=orthogonalEdgeStyle;rounded=0;orthogonalLoop=1;jettySize=auto;html=1;endArrow=open;endFill=0;strokeColor=#000000;fontSize=14;fontStyle=0" parent="1" source="EmchUFriqX5AjKunvJL4-33" edge="1">
          <mxGeometry relative="1" as="geometry">
            <mxPoint x="370" y="490" as="targetPoint"/>
          </mxGeometry>
        </mxCell>
        <mxCell id="EmchUFriqX5AjKunvJL4-33" value="&lt;span style=&quot;white-space: normal&quot;&gt;Ask the user to capture the image&lt;/span&gt;" style="shape=parallelogram;perimeter=parallelogramPerimeter;whiteSpace=wrap;html=1;strokeColor=#000000;fontSize=14;size=0.10928875293607013;fontStyle=0" parent="1" vertex="1">
          <mxGeometry x="310" y="390" width="120" height="70" as="geometry"/>
        </mxCell>
        <mxCell id="EmchUFriqX5AjKunvJL4-58" style="edgeStyle=orthogonalEdgeStyle;rounded=0;orthogonalLoop=1;jettySize=auto;html=1;exitX=0.5;exitY=1;exitDx=0;exitDy=0;endArrow=open;endFill=0;strokeColor=#000000;fontSize=14;fontStyle=0" parent="1" source="EmchUFriqX5AjKunvJL4-39" edge="1">
          <mxGeometry relative="1" as="geometry">
            <mxPoint x="540" y="760" as="targetPoint"/>
          </mxGeometry>
        </mxCell>
        <mxCell id="EmchUFriqX5AjKunvJL4-39" value="Check if user is verify by the admin" style="rounded=1;whiteSpace=wrap;html=1;strokeColor=#000000;fontSize=14;fontStyle=0" parent="1" vertex="1">
          <mxGeometry x="480" y="670" width="120" height="60" as="geometry"/>
        </mxCell>
        <mxCell id="EmchUFriqX5AjKunvJL4-59" style="edgeStyle=orthogonalEdgeStyle;rounded=0;orthogonalLoop=1;jettySize=auto;html=1;endArrow=open;endFill=0;strokeColor=#000000;fontSize=14;entryX=0.5;entryY=0;entryDx=0;entryDy=0;fontStyle=0" parent="1" source="EmchUFriqX5AjKunvJL4-40" target="EmchUFriqX5AjKunvJL4-68" edge="1">
          <mxGeometry relative="1" as="geometry">
            <mxPoint x="440" y="800" as="targetPoint"/>
          </mxGeometry>
        </mxCell>
        <mxCell id="EmchUFriqX5AjKunvJL4-60" style="edgeStyle=orthogonalEdgeStyle;rounded=0;orthogonalLoop=1;jettySize=auto;html=1;endArrow=open;endFill=0;strokeColor=#000000;fontSize=14;fontStyle=0" parent="1" source="EmchUFriqX5AjKunvJL4-40" edge="1">
          <mxGeometry relative="1" as="geometry">
            <mxPoint x="640" y="840" as="targetPoint"/>
            <Array as="points">
              <mxPoint x="640" y="800"/>
            </Array>
          </mxGeometry>
        </mxCell>
        <mxCell id="EmchUFriqX5AjKunvJL4-40" value="Is user is verified" style="rhombus;whiteSpace=wrap;html=1;strokeColor=#000000;fontSize=14;fontStyle=0" parent="1" vertex="1">
          <mxGeometry x="500" y="760" width="80" height="80" as="geometry"/>
        </mxCell>
        <mxCell id="EmchUFriqX5AjKunvJL4-61" style="edgeStyle=orthogonalEdgeStyle;rounded=0;orthogonalLoop=1;jettySize=auto;html=1;entryX=0.5;entryY=0;entryDx=0;entryDy=0;endArrow=open;endFill=0;strokeColor=#000000;fontSize=14;fontStyle=0" parent="1" source="EmchUFriqX5AjKunvJL4-41" target="EmchUFriqX5AjKunvJL4-45" edge="1">
          <mxGeometry relative="1" as="geometry"/>
        </mxCell>
        <mxCell id="EmchUFriqX5AjKunvJL4-41" value="Display the list of candidates" style="rounded=1;whiteSpace=wrap;html=1;strokeColor=#000000;fontSize=14;fontStyle=0" parent="1" vertex="1">
          <mxGeometry x="580" y="840" width="120" height="60" as="geometry"/>
        </mxCell>
        <mxCell id="EmchUFriqX5AjKunvJL4-72" value="" style="edgeStyle=orthogonalEdgeStyle;rounded=0;orthogonalLoop=1;jettySize=auto;html=1;endArrow=open;endFill=0;strokeColor=#000000;fontSize=14;fontStyle=0" parent="1" source="EmchUFriqX5AjKunvJL4-42" target="EmchUFriqX5AjKunvJL4-43" edge="1">
          <mxGeometry relative="1" as="geometry"/>
        </mxCell>
        <mxCell id="EmchUFriqX5AjKunvJL4-42" value="System commit the transaction and encrypt the vote and store in block" style="rounded=1;whiteSpace=wrap;html=1;strokeColor=#000000;fontSize=14;fontStyle=0" parent="1" vertex="1">
          <mxGeometry x="410" y="930" width="130" height="70" as="geometry"/>
        </mxCell>
        <mxCell id="EmchUFriqX5AjKunvJL4-77" value="" style="edgeStyle=orthogonalEdgeStyle;rounded=0;orthogonalLoop=1;jettySize=auto;html=1;endArrow=open;endFill=0;strokeColor=#000000;fontSize=14;fontStyle=0" parent="1" source="EmchUFriqX5AjKunvJL4-43" target="EmchUFriqX5AjKunvJL4-68" edge="1">
          <mxGeometry relative="1" as="geometry"/>
        </mxCell>
        <mxCell id="EmchUFriqX5AjKunvJL4-43" value="Set the status flag to false" style="rounded=1;whiteSpace=wrap;html=1;strokeColor=#000000;fontSize=14;fontStyle=0" parent="1" vertex="1">
          <mxGeometry x="245" y="936.5" width="120" height="57" as="geometry"/>
        </mxCell>
        <mxCell id="EmchUFriqX5AjKunvJL4-78" style="edgeStyle=orthogonalEdgeStyle;rounded=0;orthogonalLoop=1;jettySize=auto;html=1;exitX=0.25;exitY=1;exitDx=0;exitDy=0;entryX=0;entryY=0;entryDx=0;entryDy=0;endArrow=open;endFill=0;strokeColor=#000000;fontSize=14;fontStyle=0" parent="1" source="EmchUFriqX5AjKunvJL4-44" target="EmchUFriqX5AjKunvJL4-68" edge="1">
          <mxGeometry relative="1" as="geometry">
            <Array as="points">
              <mxPoint x="160" y="730"/>
              <mxPoint x="160" y="839"/>
              <mxPoint x="165" y="839"/>
            </Array>
          </mxGeometry>
        </mxCell>
        <mxCell id="EmchUFriqX5AjKunvJL4-44" value="Reject the user voting" style="rounded=1;whiteSpace=wrap;html=1;strokeColor=#000000;fontSize=14;fontStyle=0" parent="1" vertex="1">
          <mxGeometry x="140" y="670" width="120" height="60" as="geometry"/>
        </mxCell>
        <mxCell id="EmchUFriqX5AjKunvJL4-74" value="" style="edgeStyle=orthogonalEdgeStyle;rounded=0;orthogonalLoop=1;jettySize=auto;html=1;endArrow=open;endFill=0;strokeColor=#000000;fontSize=14;fontStyle=0" parent="1" source="EmchUFriqX5AjKunvJL4-45" target="EmchUFriqX5AjKunvJL4-42" edge="1">
          <mxGeometry relative="1" as="geometry"/>
        </mxCell>
        <mxCell id="EmchUFriqX5AjKunvJL4-45" value="Select candidate and cast a vote" style="rounded=1;whiteSpace=wrap;html=1;strokeColor=#000000;fontSize=14;fontStyle=0" parent="1" vertex="1">
          <mxGeometry x="580" y="940" width="120" height="50" as="geometry"/>
        </mxCell>
        <mxCell id="EmchUFriqX5AjKunvJL4-67" value="No" style="text;html=1;resizable=0;points=[];autosize=1;align=left;verticalAlign=top;spacingTop=-4;fontSize=14;fontStyle=0" parent="1" vertex="1">
          <mxGeometry x="468" y="776" width="30" height="20" as="geometry"/>
        </mxCell>
        <mxCell id="EmchUFriqX5AjKunvJL4-68" value="" style="ellipse;html=1;shape=endState;fillColor=#000000;strokeColor=#000000;fontSize=14;fontStyle=0" parent="1" vertex="1">
          <mxGeometry x="160" y="947" width="40" height="36" as="geometry"/>
        </mxCell>
        <mxCell id="EmchUFriqX5AjKunvJL4-79" value="&lt;span&gt;End&lt;/span&gt;" style="text;html=1;resizable=0;points=[];autosize=1;align=left;verticalAlign=top;spacingTop=-4;fontSize=14;fontStyle=0" parent="1" vertex="1">
          <mxGeometry x="170" y="995" width="40" height="20" as="geometry"/>
        </mxCell>
        <mxCell id="EmchUFriqX5AjKunvJL4-80" value="Yes" style="text;html=1;resizable=0;points=[];autosize=1;align=left;verticalAlign=top;spacingTop=-4;fontSize=14;" parent="1" vertex="1">
          <mxGeometry x="589" y="775" width="40" height="20" as="geometry"/>
        </mxCell>
        <mxCell id="OtMbsbLsqLYc181qHSAm-5" style="edgeStyle=orthogonalEdgeStyle;rounded=0;orthogonalLoop=1;jettySize=auto;html=1;entryX=0.5;entryY=0;entryDx=0;entryDy=0;" edge="1" parent="1" source="OtMbsbLsqLYc181qHSAm-3" target="EmchUFriqX5AjKunvJL4-3">
          <mxGeometry relative="1" as="geometry"/>
        </mxCell>
        <mxCell id="OtMbsbLsqLYc181qHSAm-6" style="edgeStyle=orthogonalEdgeStyle;rounded=0;orthogonalLoop=1;jettySize=auto;html=1;entryX=0.5;entryY=0;entryDx=0;entryDy=0;" edge="1" parent="1" source="OtMbsbLsqLYc181qHSAm-3" target="EmchUFriqX5AjKunvJL4-5">
          <mxGeometry relative="1" as="geometry"/>
        </mxCell>
        <mxCell id="OtMbsbLsqLYc181qHSAm-3" value="User Already Register" style="rhombus;whiteSpace=wrap;html=1;" vertex="1" parent="1">
          <mxGeometry x="320" y="20" width="90" height="90" as="geometry"/>
        </mxCell>
        <mxCell id="OtMbsbLsqLYc181qHSAm-7" value="Yes" style="text;html=1;resizable=0;points=[];autosize=1;align=left;verticalAlign=top;spacingTop=-4;" vertex="1" parent="1">
          <mxGeometry x="370" y="140" width="30" height="20" as="geometry"/>
        </mxCell>
        <mxCell id="OtMbsbLsqLYc181qHSAm-8" value="No" style="text;html=1;resizable=0;points=[];autosize=1;align=left;verticalAlign=top;spacingTop=-4;" vertex="1" parent="1">
          <mxGeometry x="260" y="45" width="30" height="20" as="geometry"/>
        </mxCell>
      </root>
    </mxGraphModel>
  </diagram>
  <diagram id="GoQlXbNgb32iRPwCFHy_" name="Page-2">
    <mxGraphModel dx="790" dy="445" grid="1" gridSize="10" guides="1" tooltips="1" connect="1" arrows="1" fold="1" page="1" pageScale="1" pageWidth="827" pageHeight="1169" math="0" shadow="0">
      <root>
        <mxCell id="JGU8jhHcRL837letZ3-T-0"/>
        <mxCell id="JGU8jhHcRL837letZ3-T-1" parent="JGU8jhHcRL837letZ3-T-0"/>
      </root>
    </mxGraphModel>
  </diagram>
  <diagram id="3buvhAGHjBC0aXn0QJwN" name="Page-3">
    <mxGraphModel dx="1116" dy="595" grid="1" gridSize="10" guides="1" tooltips="1" connect="1" arrows="1" fold="1" page="1" pageScale="1" pageWidth="827" pageHeight="1169" math="0" shadow="0">
      <root>
        <mxCell id="Xmx7xmDFdBuXOEGH1-B4-0"/>
        <mxCell id="Xmx7xmDFdBuXOEGH1-B4-1" parent="Xmx7xmDFdBuXOEGH1-B4-0"/>
      </root>
    </mxGraphModel>
  </diagram>
</mxfile>
